<svg width="136" height="25" viewBox="0 0 136 25" fill="none" xmlns="http://www.w3.org/2000/svg">
<path d="M6.54704 6.93296L5.62667 4.04037C5.60037 3.96148 5.57407 3.88259 5.57407 3.83C5.57407 3.75111 5.60037 3.72481 5.67926 3.72481C5.70556 3.72481 5.75815 3.72481 5.81074 3.75111C6.59963 3.93519 7.38852 3.98778 8.15111 3.98778C9.75518 3.98778 11.3067 3.67222 12.937 3.27778C13.2263 3.19889 13.3315 2.85704 13.6207 2.85704C13.8048 2.85704 16.303 4.22444 16.303 4.5663C16.303 4.72407 16.04 4.85555 15.7507 4.93444C14.1993 7.01185 12.8319 9.37852 11.5959 11.7189C13.3578 11.8241 15.1722 12.1659 16.9341 12.6656C17.1444 11.4822 17.2233 10.1937 17.2233 8.8263C17.2233 8.53704 17.2233 8.45815 17.4074 8.45815C17.6178 8.45815 19.9581 9.01037 20.6681 9.22074C21.0889 9.32593 21.2467 9.4837 21.2467 9.61519C21.2467 9.85185 20.8259 10.0885 20.5104 10.1148C20.4052 11.4033 20.2211 12.613 19.9581 13.7437C21.6674 14.5063 23.2715 15.453 24.5863 16.5837L22.3774 19.2396C22.3511 19.2659 22.2985 19.3185 22.2459 19.3185C22.2196 19.3185 22.1933 19.3185 22.167 19.2922C21.1678 18.3193 20.0633 17.5304 18.9589 16.8993C16.3556 22.8948 11.0437 23.7889 10.9911 23.7889C10.9122 23.7889 10.8596 23.7626 10.7807 23.6837C10.097 22.7896 7.57259 21.1593 7.57259 21.1593C12.0167 20.7122 14.6726 18.6874 16.04 15.6107C13.8311 14.8481 11.7274 14.5589 10.1496 14.5063C7.78296 19.4763 5.81074 21.4748 3.44407 21.4748C1.70852 21.4748 0.367407 20.1337 0.367407 18.1878C0.367407 14.3485 4.20667 12.0081 8.17741 11.64C9.07148 9.93074 10.1496 7.93222 10.9911 6.43333C9.99185 6.67 8.78222 7.01185 7.5463 7.01185C7.20444 7.01185 6.86259 6.98556 6.54704 6.93296ZM6.75741 14.6115C5.25852 15.0059 3.20741 16.0578 3.20741 17.6356C3.20741 18.03 3.39148 18.2141 3.68074 18.2141C4.73259 18.2141 5.83704 16.3207 6.75741 14.6115ZM32.7907 5.61815L34.2107 2.54148C34.9207 2.51518 35.6307 2.51518 36.3407 2.51518C38.8915 2.51518 41.3633 2.67296 43.6774 3.1463L42.757 6.48593C42.7307 6.53852 42.7044 6.61741 42.6519 6.61741C42.6256 6.61741 42.5993 6.59111 42.573 6.59111C40.5219 5.85482 38.0763 5.56556 35.21 5.56556C34.4474 5.56556 33.6322 5.59185 32.7907 5.61815ZM33.2378 6.6437L36.2619 7.38C36.0252 9.14185 35.473 11.2981 35.21 13.06C36.367 12.3237 39.1807 10.5619 42.9937 10.5619C47.3852 10.5619 49.5415 12.9811 49.5415 15.7159C49.5415 17.6881 48.1478 23.6574 36.0778 23.6574C35.7622 23.6574 35.4467 23.6574 35.1574 23.6574C35.0259 23.6574 34.947 23.6311 34.9207 23.5259C34.6315 22.5267 33.1326 20.5544 32.8696 20.2389C34.0004 20.3178 35.0522 20.3704 36.0252 20.3704C44.4926 20.3704 45.8863 17.1622 45.8863 15.7948C45.8863 14.5589 44.8081 13.5333 42.6256 13.5333C39.6541 13.5333 36.0252 15.5581 34.9733 17.8196C34.7367 17.8196 32.1596 17.8722 31.9493 17.8722C31.8441 17.8722 31.8178 17.8722 31.8178 17.7407C31.8441 15.0585 32.2648 12.2974 32.6067 10.0359C32.817 8.64222 32.9748 7.53778 33.0011 6.82778C33.0011 6.6963 33.1063 6.6437 33.1852 6.6437C33.2115 6.6437 33.2115 6.6437 33.2378 6.6437ZM78.9933 17.5304L75.6537 19.0819C75.6011 19.1081 75.5748 19.1344 75.5222 19.1344C75.4696 19.1344 75.4433 19.0556 75.4433 18.8978C75.4433 18.7137 75.4696 18.5559 75.4696 18.3719C75.4696 14.48 73.287 9.79926 69.7896 6.51222L73.0241 5.48667C76.4163 8.43185 78.9933 13.6122 78.9933 17.2148C78.9933 17.32 78.9933 17.4252 78.9933 17.5304ZM66.6604 14.1119C66.6604 14.1119 68.0278 16.7415 68.8693 17.6093C68.8956 17.6356 68.9219 17.6881 68.9219 17.767C68.9219 17.7933 68.8956 17.8459 68.8956 17.8722C67.3178 21.2119 65.7663 22.7107 64.0307 22.7107C63.3207 22.7107 62.5581 22.4478 61.743 21.9744C58.193 19.897 57.2463 16.163 57.2463 10.5619C57.2463 9.4837 57.3252 8.01111 57.3252 6.80148C57.3252 6.45963 57.3252 6.14407 57.2989 5.85482C57.2989 5.69704 57.2989 5.64444 57.4041 5.64444C57.5881 5.64444 61.6378 5.96 61.6378 6.43333C61.6378 6.59111 61.3748 6.77518 60.9015 6.85407C60.8226 7.61667 60.5596 10.7459 60.5596 12.6656C60.5596 15.0585 60.9541 17.4252 63.1367 18.6611C63.3996 18.8189 63.6363 18.8978 63.8467 18.8978C64.7144 18.8978 65.4244 17.6619 66.6604 14.1119ZM91.6944 11.4559V9.40481H97.5059V8.32667H92.5622V6.51222H97.5059V5.51296H92.01V3.43556H95.0867C94.5607 2.4363 93.9822 1.6737 93.9822 1.6737L96.6907 1.0163C96.6907 1.0163 97.4007 2.19963 97.953 3.43556H99.9515C100.583 2.27852 101.03 0.963703 101.03 0.963703C101.03 0.963703 103.633 1.38444 104.106 1.56852C104.317 1.64741 104.448 1.77889 104.448 1.91037C104.448 2.06815 104.264 2.19963 103.764 2.19963C103.738 2.19963 103.686 2.19963 103.633 2.19963C103.554 2.27852 103.239 2.83074 102.844 3.43556H106.157V5.51296H100.241V6.51222H105.447V8.32667H100.241V9.40481H106.683V11.4559H91.6944ZM83.937 4.09296V1.7263H90.9056V4.09296H83.937ZM94.3241 21.8693V20.7122C93.8244 20.7911 93.2722 20.8963 92.6674 20.9752C92.6411 21.4485 92.5096 21.6589 92.3781 21.6589C92.273 21.6589 92.1678 21.5274 92.0626 21.3433C91.747 20.7385 91.1948 18.8452 91.1948 18.8452C92.2467 18.7926 93.3248 18.6874 94.3241 18.5822V17.1885H91.4052V15.0322H94.3241V14.0856C93.7718 14.1381 93.1933 14.1907 92.6148 14.217C92.5096 14.217 92.4307 14.217 92.4044 14.1119C92.2467 13.6385 91.3263 12.4552 91.3263 12.4552C91.6418 12.4552 91.9574 12.4815 92.273 12.4815C94.5607 12.4815 96.3489 12.2185 97.6111 11.7715C98.2159 12.3763 99.0574 13.2704 99.0574 13.4544C99.0574 13.5859 98.9522 13.6648 98.7944 13.6648C98.663 13.6648 98.4526 13.5859 98.2159 13.4281C97.7952 13.5333 97.3744 13.6385 96.9274 13.7174V15.0059H99.373C99.3467 14.5852 99.3467 14.1644 99.3204 13.7174C99.2941 13.1126 99.2941 12.4026 99.2152 11.8241C99.2152 11.8241 101.74 11.9556 102.213 12.0344C102.45 12.087 102.66 12.1922 102.66 12.2974C102.66 12.4289 102.502 12.5604 102.029 12.6656C102.003 12.9548 101.976 13.3493 101.976 13.6648V15.0059L104.396 14.9796C103.396 13.7437 102.213 12.9548 102.213 12.9548L103.791 11.9293C103.791 11.9293 105.395 13.0863 106.236 13.9804L104.843 14.9796H106.815V17.1359L102.081 17.1622C102.16 17.9511 102.266 18.6611 102.397 19.2396C103.054 18.5296 103.501 17.8196 103.791 17.2411C103.791 17.2411 105.474 18.03 105.894 18.2667C106.052 18.3719 106.131 18.4507 106.131 18.5296C106.131 18.6611 105.947 18.7663 105.605 18.7663C105.526 18.7663 105.421 18.74 105.342 18.74C104.816 19.5026 104.159 20.423 103.265 21.3696C103.37 21.5274 103.922 22.29 104.343 22.29C105.079 22.29 105.237 20.3967 105.316 19.8444C105.316 19.8444 106.762 21.4485 107.367 21.7904C107.446 21.8167 107.472 21.8693 107.472 21.9219C107.472 22.3426 106.315 24.9196 104.264 24.9196C103.133 24.9196 102.108 24.1307 101.345 23.0789C99.6885 24.2622 98.6893 24.5778 98.663 24.5778C98.6104 24.5778 98.5578 24.5515 98.5052 24.4989C98.2685 24.2096 97.4007 23.6311 96.8485 23.2893C96.4015 24.4989 95.0867 24.9722 93.4826 24.9722C93.2722 24.9722 93.0618 24.9722 92.8515 24.9459C92.7463 24.9459 92.6674 24.9196 92.6411 24.8144C92.4307 24.1307 91.2474 22.3952 91.2474 22.3952C91.8785 22.4741 92.6148 22.6319 93.2196 22.6319C93.8507 22.6319 94.3241 22.4741 94.3241 21.8693ZM82.9115 7.72185V5.19741H91.4841V7.72185H82.9115ZM83.9633 11.1667V8.85259H90.8004V11.1667H83.9633ZM83.9896 14.5589V12.2711H90.8004V14.5589H83.9896ZM83.8318 24.8407V15.7422H90.9056V24.4989H88.3548V23.3681H86.4615V24.8407H83.8318ZM96.9274 20.2126V20.5807C96.9274 21.4222 96.98 21.9481 96.98 22.29C96.98 22.4478 96.98 22.6056 96.9537 22.737C98.2422 22.3163 99.373 21.7115 100.32 21.0541C99.9515 20.0285 99.6885 18.7663 99.5307 17.1622H96.9274V18.1878C97.8478 18.0037 98.5841 17.8459 99.0311 17.7144C99.0311 17.7144 99.0048 18.3193 99.0048 18.8715C99.0048 19.1344 99.0048 19.3711 99.0311 19.5289C99.0311 19.5552 99.0311 19.5552 99.0311 19.5815C99.0311 19.713 98.847 19.7656 96.9274 20.2126ZM86.4615 20.87H88.3548V18.1352H86.4615V20.87ZM117.307 11.7189V10.1937C114.993 12.1133 112.916 13.2178 112.758 13.2178C112.705 13.2178 112.679 13.1915 112.626 13.1389C112.1 12.4289 109.786 11.0089 109.786 11.0089C117.728 7.61667 121.225 1.22667 121.357 0.911111C121.357 0.911111 123.592 1.43704 124.433 1.7263C124.644 1.80518 124.775 1.93667 124.775 2.04185C124.775 2.17333 124.591 2.30481 124.118 2.35741C125.38 3.98778 129.088 8.09 135.425 10.3252C135.425 10.3252 133.085 12.0344 132.48 12.8496C132.454 12.9022 132.401 12.9285 132.349 12.9285C132.349 12.9285 130.481 12.1396 128.01 10.1937V11.7189H117.307ZM112.284 16.61V13.8226H132.901V16.61H127.3C128.299 17.4515 131.507 20.1074 133.269 22.7107L130.613 24.9459C130.034 23.973 129.456 23.1052 128.825 22.29C126.116 22.6844 118.411 23.71 113.757 24.0781C113.757 24.4989 113.547 24.867 113.31 24.867C113.179 24.867 113.047 24.7356 112.942 24.4726C112.6 23.5785 111.837 20.9226 111.837 20.9226C113.231 20.9226 114.914 20.8437 116.702 20.7385C117.307 19.3974 117.886 17.8722 118.306 16.61H112.284ZM118.701 8.95778H126.511C124.696 7.32741 123.329 5.74963 122.487 4.67148C121.62 5.88111 120.331 7.4063 118.701 8.95778ZM124.433 17.8985L126.958 16.61H121.777C121.383 17.5304 120.726 19.1081 120.094 20.5019C122.487 20.2915 124.828 20.0548 126.616 19.8181C125.932 19.1607 125.222 18.5296 124.433 17.8985Z" fill="#1F2937"/>
</svg>
