<svg width="23" height="23" viewBox="0 0 23 23" fill="none" xmlns="http://www.w3.org/2000/svg">
<rect width="23" height="23" rx="11.5" fill="url(#paint0_linear_7987_100161)"/>
<path d="M11.5 6.24976V2.74976H8.00002M14.125 10.6248V12.3748M2.75002 11.4998H4.50002M18.5 11.4998H20.25M8.87502 10.6248V12.3748M18.5 14.9998C18.5 15.4639 18.3156 15.909 17.9875 16.2372C17.6593 16.5654 17.2141 16.7498 16.75 16.7498H8.72452C8.26042 16.7499 7.81538 16.9343 7.48727 17.2625L5.56052 19.1893C5.47363 19.2761 5.36294 19.3353 5.24244 19.3592C5.12194 19.3832 4.99704 19.3709 4.88353 19.3239C4.77003 19.2769 4.67301 19.1973 4.60474 19.0951C4.53648 18.993 4.50003 18.8729 4.50002 18.75V7.99976C4.50002 7.53563 4.68439 7.09051 5.01258 6.76232C5.34077 6.43413 5.78589 6.24976 6.25002 6.24976H16.75C17.2141 6.24976 17.6593 6.43413 17.9875 6.76232C18.3156 7.09051 18.5 7.53563 18.5 7.99976V14.9998Z" stroke="#1F2937" stroke-width="1.2" stroke-linecap="round" stroke-linejoin="round"/>
<defs>
<linearGradient id="paint0_linear_7987_100161" x1="0" y1="0" x2="2.61791" y2="25.1238" gradientUnits="userSpaceOnUse">
<stop stop-color="#FFFDE7"/>
<stop offset="1" stop-color="#FFFBE0"/>
</linearGradient>
</defs>
</svg>
